<?xml version="1.0" encoding="UTF-8" standalone="no"?>
<!-- Created with Inkscape (http://www.inkscape.org/) -->

<svg
   width="1421.4937"
   height="658.935"
   viewBox="0 0 376.10354 174.34322"
   version="1.1"
   id="svg5"
   xml:space="preserve"
   xmlns:xlink="http://www.w3.org/1999/xlink"
   xmlns="http://www.w3.org/2000/svg"
   xmlns:svg="http://www.w3.org/2000/svg"><defs
     id="defs2"><color-profile
       name="_27B2"
       xlink:href="file:///Library/ColorSync/Profiles/Displays/27B2-14AABEE9-9DA1-4A0C-8284-474699B25AD0.icc"
       id="color-profile27301" /></defs><g
     id="layer5"
     transform="translate(-6.4273626,-38.402601)"
     style="display:inline"><g
       id="layer3-3"
       style="display:inline"
       transform="translate(14.829412,-20.144208)"><circle
         style="display:inline;fill:#fff7e6;fill-opacity:1;fill-rule:evenodd;stroke-width:0.2624;stroke-dasharray:none"
         id="path6373-8"
         cx="129.71602"
         cy="125.35114"
         transform="matrix(0.99481864,-0.10166549,0.10866678,0.99407823,0,0)"
         r="35" /><ellipse
         style="display:inline;fill:none;fill-rule:evenodd;stroke:#ba0101;stroke-width:1.00965;stroke-dasharray:none;stroke-opacity:1"
         id="path11254-3"
         cx="143.84535"
         cy="93.783623"
         rx="97.607178"
         ry="16.27261"
         transform="matrix(0.99367914,0.11225756,0.08277498,0.99656826,0,0)" /><ellipse
         style="display:inline;fill:none;fill-rule:evenodd;stroke:#ba0101;stroke-width:0.982602;stroke-dasharray:none"
         id="path15881-1"
         cx="167.09731"
         cy="105.90285"
         rx="147.89493"
         ry="42.418766"
         transform="matrix(0.99374448,0.11167768,0.04070946,0.99917103,0,0)" /><ellipse
         style="display:inline;fill:none;fill-rule:evenodd;stroke:#ba0101;stroke-width:1.02215;stroke-dasharray:none"
         id="path15883-0"
         cx="182.21852"
         cy="122.49849"
         rx="189.08548"
         ry="83.216568"
         transform="matrix(0.99184432,0.1274553,-0.00883845,0.99996094,0,0)" /><path
         style="display:inline;fill:#fff7e9;fill-opacity:1;fill-rule:evenodd;stroke:#fff7e9;stroke-width:0.963467;stroke-dasharray:none;stroke-opacity:1"
         d="m 108.17399,110.70186 c 0.16326,-1.44323 0.48981,-4.32985 1.16342,-7.17389 0.6736,-2.84404 1.69422,-5.645287 2.9305,-8.152502 1.23629,-2.507215 2.68812,-4.720148 4.15826,-6.512558 1.47013,-1.79241 2.95839,-3.164106 4.88697,-4.608701 1.92858,-1.444594 4.29725,-2.961946 6.75138,-4.171438 2.45413,-1.209492 4.99346,-2.111043 7.67589,-2.657943 2.68243,-0.5469 5.50771,-0.73917 8.09738,-0.668879 2.58968,0.07029 4.94359,0.403073 6.93831,0.826598 1.99472,0.423524 3.6301,0.937701 5.42902,1.751607 1.79892,0.813906 3.76129,1.927421 5.79124,3.430004 2.02996,1.502582 4.12744,3.394078 5.68006,4.867736 1.55262,1.473659 2.56033,2.529386 3.45432,3.755577 0.89399,1.226192 1.67433,2.622788 2.50446,4.489526 0.83013,1.866737 1.71006,4.203513 2.26854,5.993263 0.55847,1.78974 0.79552,3.03236 1.00811,4.5417 0.21259,1.50934 0.40075,3.28529 0.29473,4.27345 -0.10601,0.98816 -0.50637,1.18883 -11.22896,1.94974 -10.72259,0.7609 -31.76678,2.08196 -42.93777,2.8373 -11.17099,0.75534 -12.4683,0.94494 -13.13645,0.85707 -0.66815,-0.0879 -0.70688,-0.4535 -0.91738,-1.19716 -0.2105,-0.74367 -0.59282,-1.86529 -0.78404,-2.42628 -0.19122,-0.56099 -0.19126,-0.56099 -0.028,-2.00422 z"
         id="path16902-0" /></g></g></svg>
