<?xml version="1.0" encoding="UTF-8" standalone="no"?>
<!-- Created with Inkscape (http://www.inkscape.org/) -->

<svg
   width="45.278595mm"
   height="60.164394mm"
   viewBox="0 0 45.278595 60.164394"
   version="1.1"
   id="svg1635"
   xmlns="http://www.w3.org/2000/svg"
   xmlns:svg="http://www.w3.org/2000/svg">
  <defs
     id="defs1632" />
  <g
     id="layer1"
     transform="matrix(1.0005873,0,0,0.77431458,-460.70237,-376.25927)">
    <g
       id="layer1-4"
       style="display:inline"
       transform="matrix(1.2024182,0,0,1.5086573,-233.05493,-110.31372)">
      <g
         id="g12292"
         style="display:inline"
         transform="matrix(0.83544401,0,0,0.83544401,415.70823,375.29212)">
        <path
           style="display:inline;fill:#f6e7cd;fill-opacity:1;stroke:#f6e7cd;stroke-width:1.68702;stroke-opacity:1"
           id="rect7711-1"
           width="37.194061"
           height="56.530449"
           x="199.76347"
           y="24.686842"
           d="m 202.67389,24.686842 h 31.37323 a 2.9104167,2.9104167 45 0 1 2.91041,2.910417 l 0,50.709615 a 2.9104167,2.9104167 135 0 1 -2.91041,2.910417 h -31.37323 a 2.9104167,2.9104167 45 0 1 -2.91042,-2.910417 V 27.597259 a 2.9104167,2.9104167 135 0 1 2.91042,-2.910417 z" />
        <path
           style="display:inline;fill:#debc81;fill-opacity:1;stroke:#debc81;stroke-width:1.68702;stroke-opacity:1"
           id="rect7711-1-3"
           width="37.194061"
           height="56.530449"
           x="196.37132"
           y="26.876211"
           d="m 199.28174,26.876211 h 31.37323 a 2.9104167,2.9104167 45 0 1 2.91041,2.910417 v 50.709615 a 2.9104167,2.9104167 135 0 1 -2.91041,2.910417 h -31.37323 a 2.9104167,2.9104167 45 0 1 -2.91042,-2.910417 V 29.786628 a 2.9104167,2.9104167 135 0 1 2.91042,-2.910417 z" />
        <path
           style="fill:#fff7e9;stroke:#fff7e9;stroke-width:1.68702;stroke-opacity:1"
           id="rect7711"
           width="37.194061"
           height="56.530449"
           x="193.59763"
           y="28.116659"
           d="m 196.50804,28.116659 31.37323,0 a 2.9104167,2.9104167 45 0 1 2.91042,2.910417 v 50.709615 a 2.9104167,2.9104167 135 0 1 -2.91042,2.910417 l -31.37323,0 a 2.9104167,2.9104167 45 0 1 -2.91041,-2.910417 V 31.027076 a 2.9104167,2.9104167 135 0 1 2.91041,-2.910417 z" />
        <text
           xml:space="preserve"
           style="font-size:1.19029px;text-align:center;text-anchor:middle;white-space:pre;inline-size:103.781;fill:#000000;fill-opacity:1;stroke:#000000;stroke-width:1.68702;stroke-opacity:1"
           x="240.04047"
           y="51.587395"
           id="text7873"
           transform="scale(0.98536868,1.0148486)" />
        <text
           xml:space="preserve"
           style="font-size:2.67815px;text-align:center;text-anchor:middle;white-space:pre;inline-size:33.1125;fill:#000000;fill-opacity:1;stroke:#000000;stroke-width:0.0843511;stroke-dasharray:none;stroke-opacity:1"
           x="236.18451"
           y="41.333103"
           id="text8035"
           transform="matrix(0.98536866,0,0,1.0148486,-20.763838,-6.7531713)"><tspan
             x="236.18451"
             y="41.333103"
             id="tspan750">Student Essay Contest 
</tspan><tspan
             x="236.18451"
             y="44.680792"
             id="tspan752">for Black History Month<tspan
   y="44.680792"
   id="tspan754"> </tspan></tspan><tspan
             x="236.18451"
             y="48.028479"
             id="tspan756">2021</tspan></text>
        <text
           xml:space="preserve"
           style="font-size:2.67815px;text-align:center;text-anchor:middle;fill:#000000;fill-opacity:1;stroke:#000000;stroke-width:0;stroke-dasharray:none;stroke-opacity:1"
           x="214.49991"
           y="63.230965"
           id="text8771"
           transform="scale(0.98536868,1.0148486)"><tspan
             id="tspan8769"
             style="stroke-width:0"
             x="214.49991"
             y="63.230965" /></text>
        <path
           style="fill:none;fill-opacity:1;stroke:#000000;stroke-width:1.09656;stroke-dasharray:none;stroke-opacity:1"
           d="m 196.16324,49.226658 c 0.47009,0.58614 1.12144,1.024799 1.84131,1.240046 0.71987,0.215247 1.50512,0.206141 2.2198,-0.02574 0.5858,-0.190064 1.11355,-0.52095 1.65845,-0.807962 0.54489,-0.287012 1.13181,-0.536719 1.74765,-0.541267 0.71993,-0.0053 1.39559,0.322648 2.03656,0.6505 0.64097,0.327853 1.30514,0.670624 2.02454,0.698729 0.75512,0.0295 1.47469,-0.291169 2.16187,-0.605601 0.68717,-0.314431 1.40605,-0.636077 2.16125,-0.608704 0.63654,0.02307 1.23411,0.292504 1.8222,0.537168 0.5881,0.244663 1.21232,0.472822 1.8459,0.407292 0.51334,-0.05309 0.9855,-0.29468 1.44284,-0.533806 0.45733,-0.239126 0.92681,-0.484283 1.43924,-0.545578 0.39592,-0.04736 0.79865,0.0186 1.1795,0.136695 0.38086,0.118096 0.74345,0.287398 1.10648,0.452356 0.36302,0.164959 0.72969,0.326765 1.11519,0.428673 0.38551,0.101907 0.79344,0.142258 1.18395,0.06166 0.52416,-0.108181 0.97798,-0.422685 1.42467,-0.717498 0.44669,-0.294812 0.92428,-0.58457 1.45741,-0.631731 0.41301,-0.03654 0.83793,0.08244 1.17191,0.32814 0.33398,0.245696 0.57407,0.615931 0.66214,1.021089"
           id="path8889" />
        <path
           style="display:inline;fill:none;fill-opacity:1;stroke:#000000;stroke-width:1.09656;stroke-dasharray:none;stroke-opacity:1"
           d="m 196.10922,54.131476 c 0.47009,0.58614 1.12144,1.024799 1.84131,1.240046 0.71987,0.215247 1.50512,0.206141 2.2198,-0.02574 0.5858,-0.190064 1.11355,-0.52095 1.65845,-0.807962 0.54489,-0.287012 1.13181,-0.536719 1.74765,-0.541267 0.71993,-0.0053 1.39559,0.322648 2.03656,0.6505 0.64097,0.327853 1.30514,0.670624 2.02454,0.698729 0.75512,0.0295 1.47469,-0.291169 2.16187,-0.605601 0.68717,-0.314431 1.40605,-0.636077 2.16125,-0.608704 0.63654,0.02307 1.23411,0.292504 1.8222,0.537168 0.5881,0.244663 1.21232,0.472822 1.8459,0.407292 0.51334,-0.05309 0.9855,-0.29468 1.44284,-0.533806 0.45733,-0.239126 0.92681,-0.484283 1.43924,-0.545578 0.39592,-0.04736 0.79865,0.0186 1.1795,0.136695 0.38086,0.118096 0.74345,0.287398 1.10648,0.452356 0.36302,0.164959 0.72969,0.326765 1.11519,0.428673 0.38551,0.101907 0.79344,0.142258 1.18395,0.06166 0.52416,-0.108181 0.97798,-0.422685 1.42467,-0.717498 0.44669,-0.294812 0.92428,-0.58457 1.45741,-0.631731 0.41301,-0.03654 0.83793,0.08244 1.17191,0.32814 0.33398,0.245696 0.57407,0.615931 0.66214,1.021089"
           id="path8889-9" />
        <path
           style="display:inline;fill:none;fill-opacity:1;stroke:#000000;stroke-width:1.09656;stroke-dasharray:none;stroke-opacity:1"
           d="m 195.93972,62.33797 c 0.47009,0.58614 1.12144,1.024799 1.84131,1.240046 0.71987,0.215247 1.50512,0.206141 2.2198,-0.02574 0.5858,-0.190064 1.11355,-0.52095 1.65845,-0.807962 0.54489,-0.287012 1.13181,-0.536719 1.74765,-0.541267 0.71993,-0.0053 1.39559,0.322648 2.03656,0.6505 0.64097,0.327853 1.30514,0.670624 2.02454,0.698729 0.75512,0.0295 1.47469,-0.291169 2.16187,-0.605601 0.68717,-0.314431 1.40605,-0.636077 2.16125,-0.608704 0.63654,0.02307 1.23411,0.292504 1.8222,0.537168 0.5881,0.244663 1.21232,0.472822 1.8459,0.407292 0.51334,-0.05309 0.9855,-0.29468 1.44284,-0.533806 0.45733,-0.239126 0.92681,-0.484283 1.43924,-0.545578 0.39592,-0.04736 0.79865,0.0186 1.1795,0.136695 0.38086,0.118096 0.74345,0.287398 1.10648,0.452356 0.36302,0.164959 0.72969,0.326765 1.11519,0.428673 0.38551,0.101907 0.79344,0.142258 1.18395,0.06166 0.52416,-0.108181 0.97798,-0.422685 1.42467,-0.717498 0.44669,-0.294812 0.92428,-0.58457 1.45741,-0.631731 0.41301,-0.03653 0.83793,0.08244 1.17191,0.32814 0.33398,0.245696 0.57407,0.615931 0.66214,1.021089"
           id="path8889-1" />
        <path
           style="display:inline;fill:none;fill-opacity:1;stroke:#000000;stroke-width:1.09656;stroke-dasharray:none;stroke-opacity:1"
           d="m 195.8857,67.242788 c 0.47009,0.58614 1.12144,1.024799 1.84131,1.240046 0.71987,0.215247 1.50512,0.206141 2.2198,-0.02574 0.5858,-0.190064 1.11355,-0.52095 1.65845,-0.807962 0.54489,-0.287012 1.13181,-0.536719 1.74765,-0.541267 0.71993,-0.0053 1.39559,0.322648 2.03656,0.6505 0.64097,0.327853 1.30514,0.670624 2.02454,0.698729 0.75512,0.0295 1.47469,-0.291169 2.16187,-0.605601 0.68717,-0.314431 1.40605,-0.636077 2.16125,-0.608704 0.63654,0.02307 1.23411,0.292504 1.8222,0.537168 0.5881,0.244663 1.21232,0.472822 1.8459,0.407292 0.51334,-0.05309 0.9855,-0.29468 1.44284,-0.533806 0.45733,-0.239126 0.92681,-0.484283 1.43924,-0.545578 0.39592,-0.04736 0.79865,0.0186 1.1795,0.136695 0.38086,0.118096 0.74345,0.287398 1.10648,0.452356 0.36302,0.164959 0.72969,0.326765 1.11519,0.428673 0.38551,0.101907 0.79344,0.142258 1.18395,0.06166 0.52416,-0.108181 0.97798,-0.422685 1.42467,-0.717498 0.44669,-0.294812 0.92428,-0.58457 1.45741,-0.631731 0.41301,-0.03654 0.83793,0.08244 1.17191,0.32814 0.33398,0.245696 0.57407,0.615931 0.66214,1.021089"
           id="path8889-9-5" />
      </g>
    </g>
  </g>
</svg>
