<?xml version="1.0" encoding="UTF-8" standalone="no"?>
<!-- Created with Inkscape (http://www.inkscape.org/) -->

<svg
   width="297.80301mm"
   height="53.176575mm"
   viewBox="0 0 297.80301 53.176575"
   version="1.1"
   id="svg1635"
   xmlns="http://www.w3.org/2000/svg"
   xmlns:svg="http://www.w3.org/2000/svg">
  <defs
     id="defs1632" />
  <g
     id="layer1"
     transform="matrix(1.0005873,0,0,0.77431458,19.667818,-176.74252)">
    <path
       style="fill:#ff482b;stroke:#ff482b;stroke-width:2.04787"
       id="path1810"
       d="m 276.94801,-296.9324 a 147.79018,67.64592 0 0 1 -73.89509,58.58308 147.79018,67.64592 0 0 1 -147.790175,0 147.79018,67.64592 0 0 1 -73.895084,-58.58308"
       transform="scale(1,-1)" />
    <path
       style="fill:#ff482b;stroke:#ba0101;stroke-width:2"
       id="path5969"
       d="M -9.5367432e-7,287.81833 A 14.783905,11.976834 0 0 1 14.783904,275.84149 14.783905,11.976834 0 0 1 29.567809,287.81833" />
    <path
       style="fill:#ff482b;stroke:#ba0101;stroke-width:2"
       id="path5971"
       d="m 105.54585,253.01064 a 11.789697,9.7311783 0 0 1 11.7897,-9.73118 11.789697,9.7311783 0 0 1 11.7897,9.73118" />
    <path
       style="fill:#ff482b;stroke:#ba0101;stroke-width:2"
       id="path5973"
       d="m 204.35475,274.71863 a 15.532457,11.602559 0 0 1 15.53246,-11.60256 15.532457,11.602559 0 0 1 15.53245,11.60256" />
    <path
       style="fill:#ff482b;stroke:#ba0101;stroke-width:2"
       id="path5998"
       d="m 69.989628,255.06917 a 14.596767,11.789697 0 0 1 -7.298384,10.21018 14.596767,11.789697 0 0 1 -14.596768,-1e-5 14.596767,11.789697 0 0 1 -7.298383,-10.21017 H 55.39286 Z" />
    <path
       style="fill:#ff482b;stroke:#ba0101;stroke-width:2"
       id="path6000"
       d="m 171.49571,275.46094 a 12.538249,6.9241076 0 0 1 -6.26913,5.99645 12.538249,6.9241076 0 0 1 -12.53825,0 12.538249,6.9241076 0 0 1 -6.26912,-5.99645 h 12.53825 z" />
  </g>
</svg>
